<svg id="visual" viewBox="0 0 900 600" width="900" height="600" xmlns="http://www.w3.org/2000/svg" xmlns:xlink="http://www.w3.org/1999/xlink" version="1.1"><rect x="0" y="0" width="900" height="600" fill="#CAEECF"></rect><path d="M536 0L501.8 5.5C467.7 11 399.3 22 371.3 33.2C343.3 44.3 355.7 55.7 368.3 66.8C381 78 394 89 413.7 100C433.3 111 459.7 122 469 133.2C478.3 144.3 470.7 155.7 462.2 166.8C453.7 178 444.3 189 429.5 200C414.7 211 394.3 222 400 233.2C405.7 244.3 437.3 255.7 445.5 266.8C453.7 278 438.3 289 423 300C407.7 311 392.3 322 407.2 333.2C422 344.3 467 355.7 458.3 366.8C449.7 378 387.3 389 388.7 400C390 411 455 422 491 433.2C527 444.3 534 455.7 510.3 466.8C486.7 478 432.3 489 395.8 500C359.3 511 340.7 522 350.8 533.2C361 544.3 400 555.7 399.5 566.8C399 578 359 589 339 594.5L319 600L0 600L0 594.5C0 589 0 578 0 566.8C0 555.7 0 544.3 0 533.2C0 522 0 511 0 500C0 489 0 478 0 466.8C0 455.7 0 444.3 0 433.2C0 422 0 411 0 400C0 389 0 378 0 366.8C0 355.7 0 344.3 0 333.2C0 322 0 311 0 300C0 289 0 278 0 266.8C0 255.7 0 244.3 0 233.2C0 222 0 211 0 200C0 189 0 178 0 166.8C0 155.7 0 144.3 0 133.2C0 122 0 111 0 100C0 89 0 78 0 66.8C0 55.7 0 44.3 0 33.2C0 22 0 11 0 5.5L0 0Z" fill="#74987e"></path><path d="M328 0L315.7 5.5C303.3 11 278.7 22 293.8 33.2C309 44.3 364 55.7 395.7 66.8C427.3 78 435.7 89 408 100C380.3 111 316.7 122 316 133.2C315.3 144.3 377.7 155.7 400.2 166.8C422.7 178 405.3 189 375.3 200C345.3 211 302.7 222 287.3 233.2C272 244.3 284 255.7 286 266.8C288 278 280 289 288.2 300C296.3 311 320.7 322 353.5 333.2C386.3 344.3 427.7 355.7 425 366.8C422.3 378 375.7 389 349.8 400C324 411 319 422 314.8 433.2C310.7 444.3 307.3 455.7 330.2 466.8C353 478 402 489 416.3 500C430.7 511 410.3 522 389 533.2C367.7 544.3 345.3 555.7 326.3 566.8C307.3 578 291.7 589 283.8 594.5L276 600L0 600L0 594.5C0 589 0 578 0 566.8C0 555.7 0 544.3 0 533.2C0 522 0 511 0 500C0 489 0 478 0 466.8C0 455.7 0 444.3 0 433.2C0 422 0 411 0 400C0 389 0 378 0 366.8C0 355.7 0 344.3 0 333.2C0 322 0 311 0 300C0 289 0 278 0 266.8C0 255.7 0 244.3 0 233.2C0 222 0 211 0 200C0 189 0 178 0 166.8C0 155.7 0 144.3 0 133.2C0 122 0 111 0 100C0 89 0 78 0 66.8C0 55.7 0 44.3 0 33.2C0 22 0 11 0 5.5L0 0Z" fill="#6f927b"></path><path d="M268 0L267.2 5.5C266.3 11 264.7 22 260.3 33.2C256 44.3 249 55.7 239.5 66.8C230 78 218 89 237.2 100C256.3 111 306.7 122 312.8 133.2C319 144.3 281 155.7 260.5 166.8C240 178 237 189 241.8 200C246.7 211 259.3 222 258.3 233.2C257.3 244.3 242.7 255.7 240.3 266.8C238 278 248 289 257 300C266 311 274 322 291.8 333.2C309.7 344.3 337.3 355.7 353.2 366.8C369 378 373 389 367 400C361 411 345 422 323 433.2C301 444.3 273 455.7 256.3 466.8C239.7 478 234.3 489 253.7 500C273 511 317 522 333 533.2C349 544.3 337 555.7 338.7 566.8C340.3 578 355.7 589 363.3 594.5L371 600L0 600L0 594.5C0 589 0 578 0 566.8C0 555.7 0 544.3 0 533.2C0 522 0 511 0 500C0 489 0 478 0 466.8C0 455.7 0 444.3 0 433.2C0 422 0 411 0 400C0 389 0 378 0 366.8C0 355.7 0 344.3 0 333.2C0 322 0 311 0 300C0 289 0 278 0 266.8C0 255.7 0 244.3 0 233.2C0 222 0 211 0 200C0 189 0 178 0 166.8C0 155.7 0 144.3 0 133.2C0 122 0 111 0 100C0 89 0 78 0 66.8C0 55.7 0 44.3 0 33.2C0 22 0 11 0 5.5L0 0Z" fill="#698c79"></path><path d="M187 0L199.2 5.5C211.3 11 235.7 22 233.8 33.2C232 44.3 204 55.7 202.3 66.8C200.7 78 225.3 89 220.5 100C215.7 111 181.3 122 174.7 133.2C168 144.3 189 155.7 206.2 166.8C223.3 178 236.7 189 234.3 200C232 211 214 222 202.5 233.2C191 244.3 186 255.7 202.5 266.8C219 278 257 289 272 300C287 311 279 322 258.3 333.2C237.7 344.3 204.3 355.7 203.3 366.8C202.3 378 233.7 389 249.5 400C265.3 411 265.7 422 258.8 433.2C252 444.3 238 455.7 238.7 466.8C239.3 478 254.7 489 261.5 500C268.3 511 266.7 522 249.2 533.2C231.7 544.3 198.3 555.7 185 566.8C171.7 578 178.3 589 181.7 594.5L185 600L0 600L0 594.5C0 589 0 578 0 566.8C0 555.7 0 544.3 0 533.2C0 522 0 511 0 500C0 489 0 478 0 466.8C0 455.7 0 444.3 0 433.2C0 422 0 411 0 400C0 389 0 378 0 366.8C0 355.7 0 344.3 0 333.2C0 322 0 311 0 300C0 289 0 278 0 266.8C0 255.7 0 244.3 0 233.2C0 222 0 211 0 200C0 189 0 178 0 166.8C0 155.7 0 144.3 0 133.2C0 122 0 111 0 100C0 89 0 78 0 66.8C0 55.7 0 44.3 0 33.2C0 22 0 11 0 5.5L0 0Z" fill="#658676"></path><path d="M176 0L175.5 5.5C175 11 174 22 165.7 33.2C157.3 44.3 141.7 55.7 141.7 66.8C141.7 78 157.3 89 173.3 100C189.3 111 205.7 122 199.5 133.2C193.3 144.3 164.7 155.7 152 166.8C139.3 178 142.7 189 139.5 200C136.3 211 126.7 222 138 233.2C149.3 244.3 181.7 255.7 182.3 266.8C183 278 152 289 140.8 300C129.7 311 138.3 322 144.8 333.2C151.3 344.3 155.7 355.7 161.2 366.8C166.7 378 173.3 389 180.8 400C188.3 411 196.7 422 195 433.2C193.3 444.3 181.7 455.7 171.2 466.8C160.7 478 151.3 489 157.8 500C164.3 511 186.7 522 197 533.2C207.3 544.3 205.7 555.7 201.7 566.8C197.7 578 191.3 589 188.2 594.5L185 600L0 600L0 594.5C0 589 0 578 0 566.8C0 555.7 0 544.3 0 533.2C0 522 0 511 0 500C0 489 0 478 0 466.8C0 455.7 0 444.3 0 433.2C0 422 0 411 0 400C0 389 0 378 0 366.8C0 355.7 0 344.3 0 333.2C0 322 0 311 0 300C0 289 0 278 0 266.8C0 255.7 0 244.3 0 233.2C0 222 0 211 0 200C0 189 0 178 0 166.8C0 155.7 0 144.3 0 133.2C0 122 0 111 0 100C0 89 0 78 0 66.8C0 55.7 0 44.3 0 33.2C0 22 0 11 0 5.5L0 0Z" fill="#617f72"></path><path d="M68 0L63.2 5.5C58.3 11 48.7 22 59.5 33.2C70.3 44.3 101.7 55.7 110.2 66.8C118.7 78 104.3 89 96.5 100C88.7 111 87.3 122 86 133.2C84.7 144.3 83.3 155.7 86 166.8C88.7 178 95.3 189 102.8 200C110.3 211 118.7 222 118.5 233.2C118.3 244.3 109.7 255.7 104.3 266.8C99 278 97 289 95.3 300C93.7 311 92.3 322 89.7 333.2C87 344.3 83 355.7 80.3 366.8C77.7 378 76.3 389 80.5 400C84.7 411 94.3 422 101.5 433.2C108.7 444.3 113.3 455.7 104 466.8C94.7 478 71.3 489 74.5 500C77.7 511 107.3 522 117.5 533.2C127.7 544.3 118.3 555.7 102.3 566.8C86.3 578 63.7 589 52.3 594.5L41 600L0 600L0 594.5C0 589 0 578 0 566.8C0 555.7 0 544.3 0 533.2C0 522 0 511 0 500C0 489 0 478 0 466.8C0 455.7 0 444.3 0 433.2C0 422 0 411 0 400C0 389 0 378 0 366.8C0 355.7 0 344.3 0 333.2C0 322 0 311 0 300C0 289 0 278 0 266.8C0 255.7 0 244.3 0 233.2C0 222 0 211 0 200C0 189 0 178 0 166.8C0 155.7 0 144.3 0 133.2C0 122 0 111 0 100C0 89 0 78 0 66.8C0 55.7 0 44.3 0 33.2C0 22 0 11 0 5.5L0 0Z" fill="#5d796f"></path></svg>