<svg id="visual" viewBox="0 0 960 540" width="960" height="540" xmlns="http://www.w3.org/2000/svg" xmlns:xlink="http://www.w3.org/1999/xlink" version="1.1"><rect x="0" y="0" width="960" height="540" fill="#CAEECF"></rect><path d="M470 540L475.5 530C481 520 492 500 514.2 480C536.3 460 569.7 440 581.5 420C593.3 400 583.7 380 577.2 360C570.7 340 567.3 320 567.3 300C567.3 280 570.7 260 576.2 240C581.7 220 589.3 200 585.5 180C581.7 160 566.3 140 557.2 120C548 100 545 80 522.7 60C500.3 40 458.7 20 437.8 10L417 0L960 0L960 10C960 20 960 40 960 60C960 80 960 100 960 120C960 140 960 160 960 180C960 200 960 220 960 240C960 260 960 280 960 300C960 320 960 340 960 360C960 380 960 400 960 420C960 440 960 460 960 480C960 500 960 520 960 530L960 540Z" fill="#7ca081"></path><path d="M607 540L601.3 530C595.7 520 584.3 500 569.2 480C554 460 535 440 536 420C537 400 558 380 561.2 360C564.3 340 549.7 320 563.3 300C577 280 619 260 618 240C617 220 573 200 560.8 180C548.7 160 568.3 140 564.8 120C561.3 100 534.7 80 521 60C507.3 40 506.7 20 506.3 10L506 0L960 0L960 10C960 20 960 40 960 60C960 80 960 100 960 120C960 140 960 160 960 180C960 200 960 220 960 240C960 260 960 280 960 300C960 320 960 340 960 360C960 380 960 400 960 420C960 440 960 460 960 480C960 500 960 520 960 530L960 540Z" fill="#74987e"></path><path d="M650 540L652.2 530C654.3 520 658.7 500 664.5 480C670.3 460 677.7 440 684.8 420C692 400 699 380 701 360C703 340 700 320 703 300C706 280 715 260 718 240C721 220 718 200 693.8 180C669.7 160 624.3 140 605.7 120C587 100 595 80 602.8 60C610.7 40 618.3 20 622.2 10L626 0L960 0L960 10C960 20 960 40 960 60C960 80 960 100 960 120C960 140 960 160 960 180C960 200 960 220 960 240C960 260 960 280 960 300C960 320 960 340 960 360C960 380 960 400 960 420C960 440 960 460 960 480C960 500 960 520 960 530L960 540Z" fill="#6d917b"></path><path d="M786 540L765.3 530C744.7 520 703.3 500 693.3 480C683.3 460 704.7 440 706.8 420C709 400 692 380 697.5 360C703 340 731 320 741.8 300C752.7 280 746.3 260 730.5 240C714.7 220 689.3 200 676.2 180C663 160 662 140 672.7 120C683.3 100 705.7 80 720 60C734.3 40 740.7 20 743.8 10L747 0L960 0L960 10C960 20 960 40 960 60C960 80 960 100 960 120C960 140 960 160 960 180C960 200 960 220 960 240C960 260 960 280 960 300C960 320 960 340 960 360C960 380 960 400 960 420C960 440 960 460 960 480C960 500 960 520 960 530L960 540Z" fill="#678977"></path><path d="M813 540L804.3 530C795.7 520 778.3 500 776.3 480C774.3 460 787.7 440 790.2 420C792.7 400 784.3 380 775.8 360C767.3 340 758.7 320 755.8 300C753 280 756 260 768.8 240C781.7 220 804.3 200 807 180C809.7 160 792.3 140 780 120C767.7 100 760.3 80 766.2 60C772 40 791 20 800.5 10L810 0L960 0L960 10C960 20 960 40 960 60C960 80 960 100 960 120C960 140 960 160 960 180C960 200 960 220 960 240C960 260 960 280 960 300C960 320 960 340 960 360C960 380 960 400 960 420C960 440 960 460 960 480C960 500 960 520 960 530L960 540Z" fill="#628173"></path><path d="M857 540L855.8 530C854.7 520 852.3 500 855.7 480C859 460 868 440 875.5 420C883 400 889 380 891.5 360C894 340 893 320 883.5 300C874 280 856 260 856.5 240C857 220 876 200 879.2 180C882.3 160 869.7 140 866.3 120C863 100 869 80 871.8 60C874.7 40 874.3 20 874.2 10L874 0L960 0L960 10C960 20 960 40 960 60C960 80 960 100 960 120C960 140 960 160 960 180C960 200 960 220 960 240C960 260 960 280 960 300C960 320 960 340 960 360C960 380 960 400 960 420C960 440 960 460 960 480C960 500 960 520 960 530L960 540Z" fill="#5d796f"></path></svg>